<svg width="512" height="512" viewBox="0 0 512 512" fill="none" xmlns="http://www.w3.org/2000/svg">
<style>
  .mark { fill: #332d23; }
  @media (prefers-color-scheme: dark) {
    .mark { fill: #ffffff; }
  }
</style>
<g clip-path="url(#clip0_792_1913)">
<path class="mark" d="M161.032 108.282C161.032 129.691 149.858 149.249 135.933 165.897C115.415 190.425 102.946 221.803 102.946 256C102.946 290.198 115.415 321.574 135.933 346.101C149.859 362.749 161.032 382.307 161.032 403.716V462.452H91.5385V394.016C91.5385 371.569 80.2137 350.533 61.1959 337.654L49.5483 329.766V180.358L61.1959 172.47C80.2137 159.591 91.5385 138.555 91.5385 116.108V49.5488L161.032 49.5488V108.282Z"/>
<path class="mark" d="M350.968 108.282C350.968 129.691 362.142 149.249 376.067 165.897C396.585 190.425 409.054 221.803 409.054 256C409.054 290.198 396.585 321.574 376.067 346.101C362.141 362.749 350.968 382.307 350.968 403.716V462.452H420.461V394.016C420.461 371.569 431.786 350.533 450.804 337.654L462.452 329.766V180.358L450.804 172.47C431.786 159.591 420.461 138.555 420.461 116.108V49.5488L350.968 49.5488V108.282Z"/>
</g>
<defs>
<clipPath id="clip0_792_1913">
<rect width="512" height="512" rx="100" fill="white"/>
</clipPath>
</defs>
</svg>
