<svg width="32" height="32" viewBox="0 0 32 32" fill="none" xmlns="http://www.w3.org/2000/svg">
<path d="M29.493 13.0971C30.219 10.9181 29.969 8.53115 28.808 6.54915C27.062 3.50915 23.552 1.94515 20.124 2.68115C18.599 0.963148 16.408 -0.0138516 14.111 0.000148423C10.607 -0.00785158 7.49802 2.24815 6.42002 5.58215C4.16902 6.04315 2.22602 7.45215 1.08902 9.44915C-0.66998 12.4811 -0.26898 16.3031 2.08102 18.9031C1.35502 21.0821 1.60502 23.4691 2.76602 25.4511C4.51202 28.4911 8.02202 30.0552 11.45 29.3192C12.974 31.0372 15.166 32.0141 17.463 31.9991C20.969 32.0081 24.079 29.7502 25.157 26.4132C27.408 25.9522 29.351 24.5431 30.488 22.5461C32.245 19.5141 31.843 15.6951 29.494 13.0951L29.493 13.0971ZM17.465 29.9081C16.062 29.9101 14.703 29.4192 13.626 28.5202C13.675 28.4942 13.76 28.4472 13.815 28.4132L20.187 24.7331C20.513 24.5481 20.713 24.2011 20.711 23.8261V14.8431L23.404 16.3981C23.433 16.4121 23.452 16.4401 23.456 16.4721V23.9111C23.452 27.2191 20.773 29.9011 17.465 29.9081ZM4.58102 24.4051C3.87802 23.1911 3.62502 21.7681 3.86602 20.3871C3.91302 20.4151 3.99602 20.4661 4.05502 20.5001L10.427 24.1801C10.75 24.3691 11.15 24.3691 11.474 24.1801L19.253 19.6881V22.7981C19.255 22.8301 19.24 22.8611 19.215 22.8811L12.774 26.6001C9.90502 28.2522 6.24102 27.2701 4.58202 24.4051H4.58102ZM2.90402 10.4961C3.60402 9.28015 4.70902 8.35015 6.02502 7.86715C6.02502 7.92215 6.02202 8.01915 6.02202 8.08715V15.4481C6.02002 15.8221 6.22002 16.1691 6.54502 16.3541L14.324 20.8451L11.631 22.4001C11.604 22.4181 11.57 22.4211 11.54 22.4081L5.09802 18.6861C2.23502 17.0281 1.25302 13.3651 2.90302 10.4971L2.90402 10.4961ZM25.03 15.6451L17.251 11.1531L19.944 9.59915C19.971 9.58115 20.005 9.57815 20.035 9.59115L26.477 13.3101C29.345 14.9671 30.328 18.6361 28.671 21.5041C27.97 22.7181 26.866 23.6481 25.551 24.1321V16.5511C25.554 16.1771 25.355 15.8311 25.031 15.6451H25.03ZM27.71 11.6111C27.663 11.5821 27.58 11.5321 27.521 11.4981L21.149 7.81815C20.826 7.62915 20.426 7.62915 20.102 7.81815L12.323 12.3101V9.20015C12.321 9.16815 12.336 9.13715 12.361 9.11715L18.802 5.40115C21.671 3.74615 25.339 4.73115 26.993 7.60115C27.692 8.81315 27.945 10.2321 27.708 11.6111H27.71ZM10.859 17.1541L8.16502 15.5991C8.13602 15.5851 8.11702 15.5571 8.11302 15.5251V8.08615C8.11502 4.77415 10.802 2.09015 14.114 2.09215C15.515 2.09215 16.871 2.58415 17.948 3.48015C17.899 3.50615 17.815 3.55315 17.759 3.58715L11.387 7.26715C11.061 7.45215 10.861 7.79815 10.863 8.17315L10.859 17.1521V17.1541ZM12.322 14.0001L15.787 11.9991L19.252 13.9991V18.0001L15.787 20.0001L12.322 18.0001V14.0001Z" fill="black"/>
</svg>
