<svg width="263" height="262" viewBox="0 0 263 262" fill="none" xmlns="http://www.w3.org/2000/svg">
<g filter="url(#filter0_i_698_1603)">
<path d="M167.418 85.4355C125.248 85.4356 91.062 117.982 91.062 158.131C91.062 198.279 125.248 230.826 167.418 230.826C183.136 230.826 197.745 226.304 209.887 218.553C221.431 226.66 240.371 227.448 249.201 222.321C242.977 220.356 235.24 210.82 230.459 199.158C238.86 187.481 243.775 173.353 243.775 158.131C243.775 117.982 209.589 85.4355 167.418 85.4355Z" fill="#1498FF"/>
</g>
<g filter="url(#filter1_i_698_1603)">
<path d="M103.641 30C136.052 30.0001 163.841 48.4605 175.587 74.7246C171.724 74.2019 167.779 73.9307 163.769 73.9307C116.4 73.9307 77.9986 111.629 77.9985 158.132C77.9985 162.755 78.3797 167.291 79.1099 171.712C72.0883 169.541 65.5084 166.465 59.5317 162.63C48.3081 172.179 27.565 173.396 18.1987 167.958C24.9239 165.834 33.4149 154.873 38.0347 141.939C30.238 130.62 25.7153 117.15 25.7153 102.695C25.7153 62.547 60.6045 30.0002 103.641 30Z" fill="white"/>
</g>
<path d="M115.553 150.78C115.355 150.78 115.166 150.768 114.985 150.745C114.823 150.745 114.697 150.734 114.607 150.711C114.103 150.528 113.652 150.229 113.256 149.817C112.86 149.427 112.563 148.945 112.364 148.372C112.238 148.051 112.157 147.764 112.121 147.512C112.085 147.237 112.067 146.962 112.067 146.687C112.067 146.32 112.094 145.964 112.148 145.62C111.986 145.483 111.815 145.334 111.635 145.173C111.455 144.99 111.32 144.818 111.23 144.657C110.797 143.923 110.581 143.144 110.581 142.318C110.581 141.768 110.68 141.24 110.878 140.736C111.058 140.231 111.311 139.796 111.635 139.429C111.725 139.314 111.896 139.096 112.148 138.775C112.382 138.454 112.599 138.133 112.797 137.812L113.337 137.055C113.589 136.711 113.851 136.356 114.121 135.989C114.391 135.622 114.643 135.29 114.877 134.991C115.166 134.67 115.418 134.395 115.634 134.166C115.85 133.937 116.039 133.753 116.201 133.616C117.138 132.882 118.111 132.652 119.12 132.928C120.164 133.272 120.858 134.017 121.2 135.163L121.173 135.129C121.245 135.335 121.299 135.542 121.335 135.748C121.389 135.932 121.425 136.127 121.443 136.333C121.696 135.989 121.921 135.668 122.119 135.37C122.317 135.049 122.497 134.762 122.659 134.51L123.038 133.96C123.074 133.914 123.101 133.868 123.119 133.822C123.155 133.753 123.173 133.719 123.173 133.719C123.587 133.1 124.074 132.664 124.632 132.412C125.208 132.137 125.785 132.091 126.361 132.274C126.758 132.412 127.118 132.664 127.442 133.031C127.784 133.398 128.064 133.822 128.28 134.304C128.532 135.037 128.64 135.668 128.604 136.195C128.586 136.7 128.559 137.044 128.523 137.227C128.505 137.319 128.478 137.422 128.442 137.537C128.424 137.652 128.406 137.755 128.388 137.846L128.226 138.5L128.199 138.603C128.559 138.626 128.919 138.752 129.28 138.982C129.64 139.188 129.937 139.475 130.171 139.841C130.405 140.208 130.577 140.61 130.685 141.045C130.811 141.481 130.874 141.905 130.874 142.318C130.874 143.465 130.505 144.439 129.766 145.242L129.631 145.414C129.253 145.827 128.847 146.239 128.415 146.652C128.001 147.065 127.559 147.455 127.091 147.822C126.028 148.624 124.983 149.026 123.956 149.026C123.524 149.026 123.092 148.945 122.659 148.785C122.335 148.693 122.029 148.532 121.741 148.303C121.471 148.074 121.236 147.81 121.038 147.512C120.822 147.741 120.615 147.959 120.417 148.166C120.219 148.349 119.993 148.544 119.741 148.75H119.768C119.354 149.117 118.958 149.427 118.579 149.679C118.201 149.931 117.841 150.149 117.498 150.333C117.21 150.493 116.886 150.608 116.526 150.677C116.183 150.745 115.859 150.78 115.553 150.78Z" fill="white"/>
<path d="M141.175 148.2C140.923 148.2 140.644 148.143 140.337 148.028C139.419 147.753 138.788 147.042 138.446 145.895C138.158 145.024 138.167 144.038 138.473 142.937C138.581 142.547 138.743 142.089 138.959 141.561C138.995 141.47 139.031 141.366 139.067 141.252C139.121 141.137 139.175 141.034 139.229 140.942C138.833 141.217 138.428 141.515 138.013 141.837C137.617 142.135 137.212 142.421 136.798 142.696C136.077 143.27 135.374 143.797 134.69 144.279C134.005 144.737 133.375 145.127 132.798 145.448C132.132 145.838 131.447 145.861 130.745 145.517C130.042 145.173 129.547 144.565 129.259 143.694C128.952 142.823 128.934 141.951 129.205 141.08C129.475 140.185 129.952 139.555 130.637 139.188C131.051 138.936 131.564 138.603 132.177 138.19C132.789 137.755 133.429 137.285 134.095 136.78C134.888 136.184 135.726 135.576 136.608 134.957C137.491 134.315 138.347 133.765 139.175 133.306C140.13 132.71 141.022 132.309 141.85 132.102C142.427 131.919 142.967 131.816 143.472 131.793C143.976 131.77 144.453 131.838 144.904 131.999C145.895 132.366 146.57 133.146 146.93 134.338C147.201 135.186 147.237 136.035 147.038 136.883C146.858 137.709 146.615 138.489 146.309 139.222C146.363 139.199 146.417 139.176 146.471 139.154C146.543 139.131 146.606 139.108 146.66 139.085C147.345 138.764 148.02 138.81 148.687 139.222C149.371 139.612 149.84 140.254 150.092 141.149C150.344 142.043 150.317 142.926 150.011 143.797C149.705 144.646 149.191 145.23 148.471 145.551C147.642 145.918 146.867 146.262 146.147 146.583C145.444 146.904 144.823 147.18 144.282 147.409C143.544 147.684 142.931 147.89 142.445 148.028C141.977 148.143 141.553 148.2 141.175 148.2Z" fill="white"/>
<path d="M155.006 147.512C154.79 147.512 154.547 147.478 154.277 147.409C153.448 147.134 152.817 146.503 152.385 145.517C151.881 145.769 151.358 145.827 150.818 145.689C150.259 145.528 149.782 145.162 149.386 144.588C148.899 143.877 148.683 143.052 148.737 142.112C148.773 141.149 149.07 140.357 149.629 139.738C149.827 139.532 150.043 139.291 150.277 139.016C150.494 138.718 150.728 138.42 150.98 138.122C151.412 137.571 151.863 137.009 152.331 136.436C152.817 135.863 153.286 135.358 153.736 134.923C154.042 134.625 154.331 134.361 154.601 134.132C154.889 133.902 155.159 133.707 155.411 133.547C156.348 132.974 157.267 132.813 158.168 133.065C159.194 133.432 159.906 134.269 160.302 135.576C160.554 136.494 160.545 137.457 160.275 138.466C160.239 138.58 160.203 138.695 160.167 138.81C160.131 138.924 160.086 139.05 160.032 139.188C160.681 139.578 161.149 140.22 161.437 141.114C161.689 142.031 161.662 142.926 161.356 143.797C161.05 144.646 160.536 145.23 159.816 145.551C159.257 145.827 158.744 146.079 158.276 146.308C157.807 146.515 157.411 146.687 157.087 146.824C156.907 146.916 156.735 146.996 156.573 147.065C156.429 147.134 156.312 147.191 156.222 147.237C156.042 147.283 155.853 147.34 155.655 147.409C155.456 147.478 155.24 147.512 155.006 147.512Z" fill="white"/>
<path d="M168.824 148.544C168.158 148.544 167.59 148.292 167.122 147.787C166.69 147.352 166.392 146.801 166.23 146.136C166.068 145.448 166.059 144.783 166.203 144.141C166.203 144.141 166.212 144.118 166.23 144.072C166.248 144.004 166.266 143.923 166.284 143.832C165.294 144.588 164.393 145.162 163.582 145.551C162.898 145.872 162.213 145.838 161.529 145.448C160.844 145.035 160.376 144.393 160.124 143.522C159.853 142.628 159.88 141.745 160.205 140.873C160.529 140.002 161.033 139.406 161.718 139.085C162.024 138.947 162.537 138.615 163.258 138.087C163.997 137.56 164.996 136.654 166.257 135.37C167.014 134.59 167.635 133.914 168.122 133.34C168.626 132.744 168.878 132.446 168.878 132.446C169.617 131.552 170.482 131.265 171.472 131.586C172.211 131.838 172.769 132.389 173.148 133.237C173.436 133.879 173.562 134.533 173.526 135.198C173.49 135.863 173.391 136.631 173.229 137.502C173.211 137.732 173.175 137.961 173.121 138.19C173.067 138.397 173.013 138.626 172.959 138.878C173.535 138.833 174.066 138.993 174.553 139.36C175.057 139.727 175.427 140.254 175.661 140.942C175.967 141.791 175.985 142.662 175.715 143.556C175.445 144.428 174.967 145.058 174.283 145.448C173.508 145.884 172.805 146.308 172.175 146.721C171.563 147.134 171.067 147.466 170.689 147.718C170.329 147.971 170.139 148.097 170.121 148.097C169.689 148.395 169.257 148.544 168.824 148.544Z" fill="white"/>
<path d="M178.921 150.78C178.723 150.78 178.534 150.768 178.354 150.745C178.192 150.745 178.066 150.734 177.976 150.711C177.471 150.528 177.021 150.229 176.625 149.817C176.228 149.427 175.931 148.945 175.733 148.372C175.607 148.051 175.526 147.764 175.49 147.512C175.454 147.237 175.436 146.962 175.436 146.687C175.436 146.32 175.463 145.964 175.517 145.62C175.355 145.483 175.183 145.334 175.003 145.173C174.823 144.99 174.688 144.818 174.598 144.657C174.166 143.923 173.949 143.144 173.949 142.318C173.949 141.768 174.049 141.24 174.247 140.736C174.427 140.231 174.679 139.796 175.003 139.429C175.093 139.314 175.265 139.096 175.517 138.775C175.751 138.454 175.967 138.133 176.165 137.812L176.706 137.055C176.958 136.711 177.219 136.356 177.489 135.989C177.759 135.622 178.012 135.29 178.246 134.991C178.534 134.67 178.786 134.395 179.002 134.166C179.219 133.937 179.408 133.753 179.57 133.616C180.507 132.882 181.479 132.652 182.488 132.928C183.533 133.272 184.226 134.017 184.569 135.163L184.542 135.129C184.614 135.335 184.668 135.542 184.704 135.748C184.758 135.932 184.794 136.127 184.812 136.333C185.064 135.989 185.289 135.668 185.487 135.37C185.686 135.049 185.866 134.762 186.028 134.51L186.406 133.96C186.442 133.914 186.469 133.868 186.487 133.822C186.523 133.753 186.541 133.719 186.541 133.719C186.956 133.1 187.442 132.664 188 132.412C188.577 132.137 189.153 132.091 189.73 132.274C190.126 132.412 190.486 132.664 190.811 133.031C191.153 133.398 191.432 133.822 191.648 134.304C191.9 135.037 192.009 135.668 191.972 136.195C191.954 136.7 191.927 137.044 191.891 137.227C191.873 137.319 191.846 137.422 191.81 137.537C191.792 137.652 191.774 137.755 191.756 137.846L191.594 138.5L191.567 138.603C191.927 138.626 192.288 138.752 192.648 138.982C193.008 139.188 193.306 139.475 193.54 139.841C193.774 140.208 193.945 140.61 194.053 141.045C194.179 141.481 194.242 141.905 194.242 142.318C194.242 143.465 193.873 144.439 193.134 145.242L192.999 145.414C192.621 145.827 192.216 146.239 191.783 146.652C191.369 147.065 190.928 147.455 190.459 147.822C189.396 148.624 188.352 149.026 187.325 149.026C186.893 149.026 186.46 148.945 186.028 148.785C185.704 148.693 185.397 148.532 185.109 148.303C184.839 148.074 184.605 147.81 184.407 147.512C184.19 147.741 183.983 147.959 183.785 148.166C183.587 148.349 183.362 148.544 183.11 148.75H183.137C182.722 149.117 182.326 149.427 181.948 149.679C181.569 149.931 181.209 150.149 180.867 150.333C180.579 150.493 180.254 150.608 179.894 150.677C179.552 150.745 179.228 150.78 178.921 150.78Z" fill="white"/>
<path d="M198.68 147.512C198.464 147.512 198.22 147.478 197.95 147.409C197.122 147.134 196.491 146.503 196.059 145.517C195.554 145.769 195.032 145.827 194.492 145.689C193.933 145.528 193.456 145.162 193.059 144.588C192.573 143.877 192.357 143.052 192.411 142.112C192.447 141.149 192.744 140.357 193.303 139.738C193.501 139.532 193.717 139.291 193.951 139.016C194.167 138.718 194.402 138.42 194.654 138.122C195.086 137.571 195.536 137.009 196.005 136.436C196.491 135.863 196.959 135.358 197.41 134.923C197.716 134.625 198.004 134.361 198.275 134.132C198.563 133.902 198.833 133.707 199.085 133.547C200.022 132.974 200.941 132.813 201.841 133.065C202.868 133.432 203.58 134.269 203.976 135.576C204.228 136.494 204.219 137.457 203.949 138.466C203.913 138.58 203.877 138.695 203.841 138.81C203.805 138.924 203.76 139.05 203.706 139.188C204.354 139.578 204.823 140.22 205.111 141.114C205.363 142.031 205.336 142.926 205.03 143.797C204.724 144.646 204.21 145.23 203.49 145.551C202.931 145.827 202.418 146.079 201.949 146.308C201.481 146.515 201.085 146.687 200.76 146.824C200.58 146.916 200.409 146.996 200.247 147.065C200.103 147.134 199.986 147.191 199.896 147.237C199.716 147.283 199.526 147.34 199.328 147.409C199.13 147.478 198.914 147.512 198.68 147.512Z" fill="white"/>
<path d="M209.904 147.512C209.688 147.512 209.445 147.478 209.175 147.409C208.346 147.134 207.715 146.503 207.283 145.517C206.779 145.769 206.256 145.827 205.716 145.689C205.157 145.528 204.68 145.162 204.284 144.588C203.797 143.877 203.581 143.052 203.635 142.112C203.671 141.149 203.968 140.357 204.527 139.738C204.725 139.532 204.941 139.291 205.175 139.016C205.392 138.718 205.626 138.42 205.878 138.122C206.31 137.571 206.761 137.009 207.229 136.436C207.715 135.863 208.184 135.358 208.634 134.923C208.94 134.625 209.229 134.361 209.499 134.132C209.787 133.902 210.057 133.707 210.309 133.547C211.246 132.974 212.165 132.813 213.066 133.065C214.092 133.432 214.804 134.269 215.2 135.576C215.452 136.494 215.443 137.457 215.173 138.466C215.137 138.58 215.101 138.695 215.065 138.81C215.029 138.924 214.984 139.05 214.93 139.188C215.579 139.578 216.047 140.22 216.335 141.114C216.587 142.031 216.56 142.926 216.254 143.797C215.948 144.646 215.434 145.23 214.714 145.551C214.155 145.827 213.642 146.079 213.174 146.308C212.705 146.515 212.309 146.687 211.985 146.824C211.805 146.916 211.633 146.996 211.471 147.065C211.327 147.134 211.21 147.191 211.12 147.237C210.94 147.283 210.751 147.34 210.553 147.409C210.354 147.478 210.138 147.512 209.904 147.512Z" fill="white"/>
<path d="M221.128 147.512C220.912 147.512 220.669 147.478 220.399 147.409C219.57 147.134 218.94 146.503 218.507 145.517C218.003 145.769 217.481 145.827 216.94 145.689C216.382 145.528 215.904 145.162 215.508 144.588C215.022 143.877 214.805 143.052 214.859 142.112C214.896 141.149 215.193 140.357 215.751 139.738C215.949 139.532 216.166 139.291 216.4 139.016C216.616 138.718 216.85 138.42 217.102 138.122C217.535 137.571 217.985 137.009 218.453 136.436C218.94 135.863 219.408 135.358 219.858 134.923C220.165 134.625 220.453 134.361 220.723 134.132C221.011 133.902 221.281 133.707 221.534 133.547C222.47 132.974 223.389 132.813 224.29 133.065C225.317 133.432 226.028 134.269 226.424 135.576C226.677 136.494 226.668 137.457 226.397 138.466C226.361 138.58 226.325 138.695 226.289 138.81C226.253 138.924 226.208 139.05 226.154 139.188C226.803 139.578 227.271 140.22 227.559 141.114C227.812 142.031 227.785 142.926 227.478 143.797C227.172 144.646 226.659 145.23 225.938 145.551C225.38 145.827 224.866 146.079 224.398 146.308C223.93 146.515 223.533 146.687 223.209 146.824C223.029 146.916 222.858 146.996 222.696 147.065C222.551 147.134 222.434 147.191 222.344 147.237C222.164 147.283 221.975 147.34 221.777 147.409C221.579 147.478 221.363 147.512 221.128 147.512Z" fill="white"/>
<path d="M117.147 181.536C116.931 181.536 116.688 181.502 116.418 181.433C115.589 181.158 114.958 180.527 114.526 179.541C114.022 179.793 113.499 179.851 112.959 179.713C112.4 179.552 111.923 179.185 111.527 178.612C111.04 177.901 110.824 177.076 110.878 176.136C110.914 175.173 111.212 174.381 111.77 173.762C111.968 173.556 112.184 173.315 112.418 173.04C112.635 172.742 112.869 172.444 113.121 172.146C113.553 171.595 114.004 171.033 114.472 170.46C114.958 169.887 115.427 169.382 115.877 168.947C116.183 168.649 116.472 168.385 116.742 168.156C117.03 167.926 117.3 167.731 117.552 167.571C118.489 166.997 119.408 166.837 120.309 167.089C121.335 167.456 122.047 168.293 122.443 169.6C122.695 170.517 122.686 171.481 122.416 172.49C122.38 172.604 122.344 172.719 122.308 172.834C122.272 172.948 122.227 173.074 122.173 173.212C122.822 173.602 123.29 174.244 123.578 175.138C123.83 176.055 123.803 176.95 123.497 177.821C123.191 178.67 122.677 179.254 121.957 179.575C121.398 179.851 120.885 180.103 120.417 180.332C119.948 180.538 119.552 180.71 119.228 180.848C119.048 180.94 118.876 181.02 118.714 181.089C118.57 181.158 118.453 181.215 118.363 181.261C118.183 181.307 117.994 181.364 117.796 181.433C117.598 181.502 117.381 181.536 117.147 181.536Z" fill="white"/>
<path d="M130.965 182.568C130.299 182.568 129.731 182.316 129.263 181.811C128.831 181.375 128.534 180.825 128.371 180.16C128.209 179.472 128.2 178.807 128.344 178.165C128.344 178.165 128.353 178.142 128.371 178.096C128.389 178.027 128.407 177.947 128.425 177.855C127.435 178.612 126.534 179.185 125.723 179.575C125.039 179.896 124.354 179.862 123.67 179.472C122.985 179.059 122.517 178.417 122.265 177.546C121.994 176.652 122.021 175.769 122.346 174.897C122.67 174.026 123.174 173.43 123.859 173.109C124.165 172.971 124.679 172.639 125.399 172.111C126.138 171.584 127.137 170.678 128.398 169.394C129.155 168.614 129.777 167.938 130.263 167.364C130.767 166.768 131.019 166.47 131.019 166.47C131.758 165.576 132.623 165.289 133.613 165.61C134.352 165.862 134.911 166.413 135.289 167.261C135.577 167.903 135.703 168.557 135.667 169.222C135.631 169.887 135.532 170.655 135.37 171.526C135.352 171.756 135.316 171.985 135.262 172.214C135.208 172.421 135.154 172.65 135.1 172.902C135.676 172.856 136.208 173.017 136.694 173.384C137.198 173.751 137.568 174.278 137.802 174.966C138.108 175.815 138.126 176.686 137.856 177.58C137.586 178.452 137.108 179.082 136.424 179.472C135.649 179.908 134.947 180.332 134.316 180.745C133.704 181.158 133.208 181.49 132.83 181.742C132.47 181.995 132.28 182.121 132.262 182.121C131.83 182.419 131.398 182.568 130.965 182.568Z" fill="white"/>
<path d="M141.062 184.804C140.864 184.804 140.675 184.792 140.495 184.769C140.333 184.769 140.207 184.758 140.117 184.735C139.612 184.551 139.162 184.253 138.766 183.841C138.369 183.451 138.072 182.969 137.874 182.396C137.748 182.075 137.667 181.788 137.631 181.536C137.595 181.261 137.577 180.986 137.577 180.71C137.577 180.344 137.604 179.988 137.658 179.644C137.496 179.507 137.325 179.357 137.144 179.197C136.964 179.014 136.829 178.842 136.739 178.681C136.307 177.947 136.091 177.168 136.091 176.342C136.091 175.792 136.19 175.264 136.388 174.76C136.568 174.255 136.82 173.82 137.144 173.453C137.234 173.338 137.406 173.12 137.658 172.799C137.892 172.478 138.108 172.157 138.306 171.836L138.847 171.079C139.099 170.735 139.36 170.38 139.63 170.013C139.901 169.646 140.153 169.314 140.387 169.015C140.675 168.694 140.927 168.419 141.143 168.19C141.36 167.961 141.549 167.777 141.711 167.64C142.648 166.906 143.62 166.676 144.629 166.952C145.674 167.296 146.368 168.041 146.71 169.187L146.683 169.153C146.755 169.359 146.809 169.566 146.845 169.772C146.899 169.956 146.935 170.151 146.953 170.357C147.205 170.013 147.43 169.692 147.629 169.394C147.827 169.073 148.007 168.786 148.169 168.534L148.547 167.984C148.583 167.938 148.61 167.892 148.628 167.846C148.664 167.777 148.682 167.743 148.682 167.743C149.097 167.124 149.583 166.688 150.141 166.436C150.718 166.16 151.294 166.115 151.871 166.298C152.267 166.436 152.627 166.688 152.952 167.055C153.294 167.422 153.573 167.846 153.789 168.327C154.042 169.061 154.15 169.692 154.114 170.219C154.096 170.724 154.069 171.068 154.032 171.251C154.014 171.343 153.987 171.446 153.951 171.561C153.933 171.675 153.915 171.779 153.897 171.87L153.735 172.524L153.708 172.627C154.069 172.65 154.429 172.776 154.789 173.005C155.149 173.212 155.447 173.499 155.681 173.865C155.915 174.232 156.086 174.634 156.194 175.069C156.32 175.505 156.383 175.929 156.383 176.342C156.383 177.489 156.014 178.463 155.275 179.266L155.14 179.438C154.762 179.851 154.357 180.263 153.924 180.676C153.51 181.089 153.069 181.479 152.6 181.846C151.538 182.648 150.493 183.049 149.466 183.049C149.034 183.049 148.601 182.969 148.169 182.809C147.845 182.717 147.538 182.556 147.25 182.327C146.98 182.098 146.746 181.834 146.548 181.536C146.332 181.765 146.124 181.983 145.926 182.19C145.728 182.373 145.503 182.568 145.251 182.774H145.278C144.863 183.141 144.467 183.451 144.089 183.703C143.71 183.955 143.35 184.173 143.008 184.357C142.72 184.517 142.395 184.632 142.035 184.7C141.693 184.769 141.369 184.804 141.062 184.804Z" fill="white"/>
<path d="M166.684 182.224C166.432 182.224 166.153 182.167 165.847 182.052C164.928 181.777 164.298 181.066 163.955 179.919C163.667 179.048 163.676 178.062 163.982 176.961C164.09 176.571 164.253 176.113 164.469 175.585C164.505 175.494 164.541 175.39 164.577 175.276C164.631 175.161 164.685 175.058 164.739 174.966C164.343 175.241 163.937 175.539 163.523 175.86C163.127 176.159 162.721 176.445 162.307 176.72C161.586 177.294 160.884 177.821 160.199 178.303C159.515 178.761 158.884 179.151 158.308 179.472C157.641 179.862 156.957 179.885 156.254 179.541C155.552 179.197 155.056 178.589 154.768 177.718C154.462 176.846 154.444 175.975 154.714 175.104C154.984 174.209 155.462 173.579 156.146 173.212C156.561 172.96 157.074 172.627 157.686 172.214C158.299 171.779 158.938 171.309 159.605 170.804C160.398 170.208 161.235 169.6 162.118 168.981C163.001 168.339 163.856 167.789 164.685 167.33C165.64 166.734 166.531 166.332 167.36 166.126C167.936 165.943 168.477 165.839 168.981 165.817C169.486 165.794 169.963 165.862 170.413 166.023C171.404 166.39 172.08 167.169 172.44 168.362C172.71 169.21 172.746 170.059 172.548 170.907C172.368 171.733 172.125 172.512 171.818 173.246C171.872 173.223 171.927 173.2 171.981 173.177C172.053 173.155 172.116 173.132 172.17 173.109C172.854 172.788 173.53 172.834 174.196 173.246C174.881 173.636 175.349 174.278 175.601 175.173C175.854 176.067 175.827 176.95 175.52 177.821C175.214 178.67 174.701 179.254 173.98 179.575C173.151 179.942 172.377 180.286 171.656 180.607C170.954 180.928 170.332 181.203 169.792 181.433C169.053 181.708 168.441 181.914 167.954 182.052C167.486 182.167 167.063 182.224 166.684 182.224Z" fill="white"/>
<path d="M180.516 181.536C180.299 181.536 180.056 181.502 179.786 181.433C178.957 181.158 178.327 180.527 177.895 179.541C177.39 179.793 176.868 179.851 176.327 179.713C175.769 179.552 175.292 179.185 174.895 178.612C174.409 177.901 174.193 177.076 174.247 176.136C174.283 175.173 174.58 174.381 175.138 173.762C175.337 173.556 175.553 173.315 175.787 173.04C176.003 172.742 176.237 172.444 176.489 172.146C176.922 171.595 177.372 171.033 177.841 170.46C178.327 169.887 178.795 169.382 179.246 168.947C179.552 168.649 179.84 168.385 180.11 168.156C180.399 167.926 180.669 167.731 180.921 167.571C181.858 166.997 182.776 166.837 183.677 167.089C184.704 167.456 185.415 168.293 185.812 169.6C186.064 170.517 186.055 171.481 185.785 172.49C185.749 172.604 185.713 172.719 185.677 172.834C185.641 172.948 185.596 173.074 185.542 173.212C186.19 173.602 186.658 174.244 186.947 175.138C187.199 176.055 187.172 176.95 186.866 177.821C186.559 178.67 186.046 179.254 185.325 179.575C184.767 179.851 184.254 180.103 183.785 180.332C183.317 180.538 182.92 180.71 182.596 180.848C182.416 180.94 182.245 181.02 182.083 181.089C181.939 181.158 181.822 181.215 181.732 181.261C181.551 181.307 181.362 181.364 181.164 181.433C180.966 181.502 180.75 181.536 180.516 181.536Z" fill="white"/>
<path d="M190.146 184.804C189.947 184.804 189.758 184.792 189.578 184.769C189.416 184.769 189.29 184.758 189.2 184.735C188.696 184.551 188.245 184.253 187.849 183.841C187.453 183.451 187.155 182.969 186.957 182.396C186.831 182.075 186.75 181.788 186.714 181.536C186.678 181.261 186.66 180.986 186.66 180.71C186.66 180.344 186.687 179.988 186.741 179.644C186.579 179.507 186.408 179.357 186.228 179.197C186.047 179.014 185.912 178.842 185.822 178.681C185.39 177.947 185.174 177.168 185.174 176.342C185.174 175.792 185.273 175.264 185.471 174.76C185.651 174.255 185.903 173.82 186.228 173.453C186.318 173.338 186.489 173.12 186.741 172.799C186.975 172.478 187.191 172.157 187.389 171.836L187.93 171.079C188.182 170.735 188.443 170.38 188.714 170.013C188.984 169.646 189.236 169.314 189.47 169.015C189.758 168.694 190.011 168.419 190.227 168.19C190.443 167.961 190.632 167.777 190.794 167.64C191.731 166.906 192.704 166.676 193.712 166.952C194.757 167.296 195.451 168.041 195.793 169.187L195.766 169.153C195.838 169.359 195.892 169.566 195.928 169.772C195.982 169.956 196.018 170.151 196.036 170.357C196.288 170.013 196.514 169.692 196.712 169.394C196.91 169.073 197.09 168.786 197.252 168.534L197.63 167.984C197.666 167.938 197.693 167.892 197.712 167.846C197.748 167.777 197.766 167.743 197.766 167.743C198.18 167.124 198.666 166.688 199.225 166.436C199.801 166.16 200.378 166.115 200.954 166.298C201.35 166.436 201.711 166.688 202.035 167.055C202.377 167.422 202.656 167.846 202.873 168.327C203.125 169.061 203.233 169.692 203.197 170.219C203.179 170.724 203.152 171.068 203.116 171.251C203.098 171.343 203.071 171.446 203.035 171.561C203.017 171.675 202.999 171.779 202.981 171.87L202.818 172.524L202.791 172.627C203.152 172.65 203.512 172.776 203.872 173.005C204.233 173.212 204.53 173.499 204.764 173.865C204.998 174.232 205.169 174.634 205.277 175.069C205.403 175.505 205.467 175.929 205.467 176.342C205.467 177.489 205.097 178.463 204.359 179.266L204.224 179.438C203.845 179.851 203.44 180.263 203.008 180.676C202.593 181.089 202.152 181.479 201.684 181.846C200.621 182.648 199.576 183.049 198.549 183.049C198.117 183.049 197.684 182.969 197.252 182.809C196.928 182.717 196.622 182.556 196.333 182.327C196.063 182.098 195.829 181.834 195.631 181.536C195.415 181.765 195.208 181.983 195.009 182.19C194.811 182.373 194.586 182.568 194.334 182.774H194.361C193.947 183.141 193.55 183.451 193.172 183.703C192.794 183.955 192.433 184.173 192.091 184.357C191.803 184.517 191.479 184.632 191.118 184.7C190.776 184.769 190.452 184.804 190.146 184.804Z" fill="white"/>
<path d="M209.904 181.536C209.688 181.536 209.445 181.502 209.175 181.433C208.346 181.158 207.715 180.527 207.283 179.541C206.779 179.793 206.256 179.851 205.716 179.713C205.157 179.552 204.68 179.185 204.284 178.612C203.797 177.901 203.581 177.076 203.635 176.136C203.671 175.173 203.968 174.381 204.527 173.762C204.725 173.556 204.941 173.315 205.175 173.04C205.392 172.742 205.626 172.444 205.878 172.146C206.31 171.595 206.761 171.033 207.229 170.46C207.715 169.887 208.184 169.382 208.634 168.947C208.94 168.649 209.229 168.385 209.499 168.156C209.787 167.926 210.057 167.731 210.309 167.571C211.246 166.997 212.165 166.837 213.066 167.089C214.092 167.456 214.804 168.293 215.2 169.6C215.452 170.517 215.443 171.481 215.173 172.49C215.137 172.604 215.101 172.719 215.065 172.834C215.029 172.948 214.984 173.074 214.93 173.212C215.579 173.602 216.047 174.244 216.335 175.138C216.587 176.055 216.56 176.95 216.254 177.821C215.948 178.67 215.434 179.254 214.714 179.575C214.155 179.851 213.642 180.103 213.174 180.332C212.705 180.538 212.309 180.71 211.985 180.848C211.805 180.94 211.633 181.02 211.471 181.089C211.327 181.158 211.21 181.215 211.12 181.261C210.94 181.307 210.751 181.364 210.553 181.433C210.354 181.502 210.138 181.536 209.904 181.536Z" fill="white"/>
<defs>
<filter id="filter0_i_698_1603" x="91.062" y="82.034" width="158.139" height="148.792" filterUnits="userSpaceOnUse" color-interpolation-filters="sRGB">
<feFlood flood-opacity="0" result="BackgroundImageFix"/>
<feBlend mode="normal" in="SourceGraphic" in2="BackgroundImageFix" result="shape"/>
<feColorMatrix in="SourceAlpha" type="matrix" values="0 0 0 0 0 0 0 0 0 0 0 0 0 0 0 0 0 0 127 0" result="hardAlpha"/>
<feOffset dy="-3.40154"/>
<feGaussianBlur stdDeviation="1.70077"/>
<feComposite in2="hardAlpha" operator="arithmetic" k2="-1" k3="1"/>
<feColorMatrix type="matrix" values="0 0 0 0 0 0 0 0 0 0 0 0 0 0 0 0 0 0 0.24 0"/>
<feBlend mode="normal" in2="shape" result="effect1_innerShadow_698_1603"/>
</filter>
<filter id="filter1_i_698_1603" x="18.1987" y="26.5985" width="157.389" height="145.112" filterUnits="userSpaceOnUse" color-interpolation-filters="sRGB">
<feFlood flood-opacity="0" result="BackgroundImageFix"/>
<feBlend mode="normal" in="SourceGraphic" in2="BackgroundImageFix" result="shape"/>
<feColorMatrix in="SourceAlpha" type="matrix" values="0 0 0 0 0 0 0 0 0 0 0 0 0 0 0 0 0 0 127 0" result="hardAlpha"/>
<feOffset dy="-3.40154"/>
<feGaussianBlur stdDeviation="1.70077"/>
<feComposite in2="hardAlpha" operator="arithmetic" k2="-1" k3="1"/>
<feColorMatrix type="matrix" values="0 0 0 0 0 0 0 0 0 0 0 0 0 0 0 0 0 0 0.24 0"/>
<feBlend mode="normal" in2="shape" result="effect1_innerShadow_698_1603"/>
</filter>
</defs>
</svg>
