<svg width="24" height="24" viewBox="0 0 24 24" fill="none" xmlns="http://www.w3.org/2000/svg">
<path d="M13.6366 6.23434C14.2005 5.98234 14.8244 5.95334 15.3856 6.19918C15.9477 6.44538 16.3658 6.93121 16.5907 7.55563L16.6425 7.73434C16.7348 8.14674 16.6362 8.52762 16.5409 8.79781C16.4843 8.95819 16.4145 9.11593 16.3554 9.24996C16.2927 9.39203 16.2394 9.51174 16.1933 9.6318C16.1 9.87453 16.0725 10.0322 16.0858 10.1533C16.0962 10.2475 16.1389 10.3944 16.3602 10.6005C16.3774 10.6165 16.3944 10.6338 16.41 10.6513C16.8464 11.1419 17.1853 11.6321 17.3319 12.2246C17.4296 12.6195 17.4292 13.0159 17.3671 13.4316L18.1034 13.7363C18.4861 13.8945 18.6687 14.333 18.5106 14.7158C18.3525 15.0985 17.913 15.2802 17.5302 15.122L16.2186 14.58C15.8704 14.436 15.6832 14.0562 15.7811 13.6923C15.9298 13.1412 15.9357 12.827 15.8759 12.5849C15.8154 12.3407 15.6631 12.0702 15.2919 11.6523C14.8782 11.2506 14.6481 10.8026 14.5946 10.3173C14.5421 9.84088 14.6703 9.41412 14.7938 9.09274C14.856 8.93115 14.9263 8.77363 14.9833 8.64449C15.0439 8.507 15.0908 8.39806 15.1259 8.29879C15.1997 8.08964 15.174 8.04748 15.1796 8.06344C15.0722 7.76545 14.913 7.62976 14.7841 7.5732C14.6544 7.51642 14.4733 7.50329 14.2489 7.60348C13.7913 7.80807 13.1268 8.53216 12.9442 10.1504C12.9154 10.4044 12.7587 10.6265 12.5292 10.7392C12.2996 10.8518 12.0281 10.8396 11.8095 10.707C9.22834 9.14115 7.5424 8.57132 6.53603 8.49508C6.0406 8.4576 5.77628 8.54456 5.65028 8.62106C5.54386 8.6857 5.48949 8.76844 5.46669 8.89156C5.40931 9.20187 5.57774 9.76718 6.05849 10.2421C6.51114 10.6893 7.11003 10.9221 7.73915 10.7646C8.1409 10.664 8.54766 10.9078 8.64833 11.3095C8.74892 11.7113 8.50522 12.1191 8.10341 12.2197C6.84933 12.5336 5.73468 12.0307 5.0038 11.3086C4.30117 10.6142 3.81528 9.57528 3.99208 8.6191C4.0864 8.10905 4.37137 7.6424 4.87099 7.33883C5.35112 7.04717 5.9602 6.94684 6.64931 6.99899C7.8486 7.08984 9.48775 7.6569 11.663 8.88277C12.0282 7.55528 12.7456 6.6327 13.6366 6.23434Z" fill="black"/>
<path d="M8.99504 10.2166C10.8989 9.89141 13.5853 10.7783 14.5156 13.3865L14.6005 13.6443L14.622 13.7381C14.6272 13.7697 14.6307 13.8017 14.6318 13.8338C14.6606 14.7026 14.4985 15.4159 14.1093 15.9314C13.7019 16.4709 13.1289 16.6842 12.5868 16.7039C12.0655 16.7227 11.5574 16.5679 11.1552 16.3602C10.768 16.1602 10.3714 15.8555 10.1532 15.4764C9.94673 15.1173 10.0706 14.6585 10.4296 14.452C10.7886 14.2457 11.2466 14.3695 11.4531 14.7283C11.4531 14.7283 11.4539 14.7296 11.455 14.7312C11.4561 14.7329 11.4578 14.7352 11.4599 14.7381C11.4645 14.7444 11.4711 14.7529 11.4804 14.7635C11.4992 14.7849 11.5261 14.8115 11.5615 14.8416C11.6334 14.9027 11.7299 14.9684 11.8437 15.0271C12.0792 15.1487 12.3306 15.2121 12.5322 15.2049C12.7129 15.1984 12.8263 15.1406 12.912 15.0271C13.011 14.8961 13.1389 14.5983 13.1318 13.9812C12.5271 12.1469 10.6398 11.4575 9.24797 11.6951C8.53769 11.8164 8.18855 12.1356 8.09563 12.4178C8.00705 12.6872 8.03168 13.2954 8.95598 14.2898C9.18743 14.5392 9.2217 14.9133 9.03997 15.201C8.692 15.7518 8.77824 15.984 8.84563 16.0984C8.9687 16.3073 9.3049 16.5668 9.98723 16.8299C10.6397 17.0815 11.4674 17.2851 12.3837 17.4803C13.2717 17.6694 14.2759 17.8569 15.163 18.0623C15.5665 18.1557 15.8179 18.5582 15.7245 18.9617C15.6311 19.3651 15.2285 19.6164 14.8251 19.5232C13.9454 19.3195 13.0234 19.1499 12.0712 18.9471C11.1473 18.7503 10.2198 18.5268 9.44817 18.2293C8.70652 17.9433 7.94835 17.531 7.55266 16.8592C7.19179 16.2461 7.21127 15.5742 7.50383 14.9021C6.69211 13.8877 6.36744 12.8693 6.67083 11.948C7.0108 10.9161 8.01522 10.384 8.99504 10.2166Z" fill="black"/>
<path d="M18.4334 12.591C18.6186 12.4906 18.9019 12.418 19.2059 12.5421C19.4743 12.6519 19.6198 12.8618 19.6932 12.9962C19.7715 13.1398 19.8224 13.2977 19.8582 13.4445C19.9955 14.0075 20.0505 14.9902 20.0438 16.4611C20.0437 16.4695 20.0431 16.4781 20.0428 16.4865C19.993 17.7832 19.8298 19.2209 18.8875 20.4933C18.8805 20.5027 18.8734 20.5126 18.866 20.5216C18.3287 21.1798 17.7901 21.6354 17.2322 21.8537C16.6339 22.0878 16.0608 22.0287 15.575 21.7492C15.1272 21.4915 14.8052 21.0775 14.574 20.6847C14.3377 20.2832 14.159 19.8381 14.0252 19.4386C13.919 19.1214 14.0357 18.7718 14.3113 18.5822C15.1757 17.9878 15.5625 17.6426 15.785 17.3898C16.0132 17.1304 16.0629 16.9951 16.3172 16.6066C16.639 15.8866 16.9281 15.1729 17.2156 14.5089C17.3576 14.1811 17.4977 13.8708 17.6317 13.6066C17.76 13.3535 17.906 13.0956 18.0672 12.9025C18.1459 12.8082 18.2669 12.6813 18.4334 12.591ZM18.5281 15.256C18.2733 15.8512 17.9701 16.5898 17.6668 17.2658C17.6499 17.3033 17.63 17.3399 17.6072 17.3742C17.4355 17.6324 17.2367 18.0109 16.9109 18.381C16.634 18.6957 16.2499 19.0314 15.6414 19.4748C15.7106 19.6349 15.7861 19.7866 15.867 19.924C16.0361 20.2113 16.1955 20.3749 16.3231 20.4484C16.4127 20.5 16.5093 20.526 16.6854 20.4572C16.9005 20.373 17.2377 20.1386 17.6932 19.5832C18.3409 18.6983 18.4964 17.661 18.5438 16.4289C18.5456 15.9763 18.5378 15.5877 18.5281 15.256Z" fill="black"/>
<path d="M4.34804 4.0414C4.4615 3.64321 4.87659 3.41163 5.2748 3.5248C5.95275 3.71797 6.54243 3.97489 7.06483 4.38319C7.58716 4.79155 7.99981 5.31822 8.37636 5.99062C8.57856 6.35198 8.4496 6.80878 8.08827 7.01112C7.72687 7.21351 7.27015 7.08444 7.06776 6.72304C6.75717 6.16843 6.4629 5.81649 6.14101 5.56483C5.81895 5.31313 5.42512 5.1279 4.86464 4.96816C4.46645 4.8547 4.23488 4.4396 4.34804 4.0414Z" fill="black"/>
<path d="M12.6617 2.47932C12.961 2.19331 13.435 2.20378 13.7213 2.50276C14.0077 2.80202 13.9971 3.27692 13.6979 3.56331C13.14 4.09734 12.9949 4.56374 12.7135 5.79768C12.6213 6.20143 12.2189 6.45421 11.8151 6.36213C11.4113 6.26996 11.1585 5.86748 11.2506 5.4637C11.5319 4.23019 11.7488 3.35301 12.6617 2.47932Z" fill="black"/>
<path d="M8.84015 2.05841C9.22207 1.89855 9.66147 2.07805 9.8216 2.45978C10.2853 3.56762 10.3186 4.17929 10.3909 5.11603C10.4228 5.52894 10.1144 5.88968 9.70148 5.9217C9.2885 5.9536 8.92772 5.64425 8.89582 5.23127C8.82582 4.32524 8.80499 3.91484 8.43879 3.03986C8.27892 2.65795 8.45843 2.21854 8.84015 2.05841Z" fill="black"/>
</svg>
