<svg width="236" height="232" viewBox="0 0 236 232" fill="none" xmlns="http://www.w3.org/2000/svg">
<path d="M124.638 77.3336C143.325 77.3336 158.474 62.1848 158.474 43.4979C158.474 24.8109 143.325 9.66211 124.638 9.66211C105.951 9.66211 90.8022 24.8109 90.8022 43.4979C90.8022 62.1848 105.951 77.3336 124.638 77.3336Z" fill="#7B83EB"/>
<path opacity="0.1" d="M122.224 50.75H91.5781L91.7304 51.4242L91.7449 51.4822L91.9044 52.1057C94.1311 60.5499 99.5338 67.8074 106.984 72.3628C114.435 76.9182 123.357 78.4193 131.888 76.5528V60.4143C131.88 57.8535 130.86 55.3998 129.049 53.589C127.238 51.7783 124.785 50.7576 122.224 50.75Z" fill="black"/>
<path opacity="0.2" d="M114.973 58H94.0645C96.8086 63.7857 101.138 68.6739 106.55 72.0966C111.962 75.5194 118.234 77.3361 124.638 77.3357V67.6643C124.63 65.1035 123.609 62.6498 121.799 60.839C119.988 59.0283 117.534 58.0076 114.973 58Z" fill="black"/>
<path d="M200.763 79.75C214.777 79.75 226.138 68.3892 226.138 54.375C226.138 40.3608 214.777 29 200.763 29C186.749 29 175.388 40.3608 175.388 54.375C175.388 68.3892 186.749 79.75 200.763 79.75Z" fill="#5059C9"/>
<path d="M222.513 87H165.521C164.29 87 163.11 87.4889 162.24 88.359C161.37 89.2292 160.881 90.4094 160.881 91.64V150.437C160.724 158.947 163.495 167.252 168.731 173.962C173.967 180.673 181.349 185.38 189.642 187.296C194.923 188.405 200.385 188.321 205.63 187.052C210.876 185.783 215.772 183.36 219.962 179.96C224.153 176.559 227.533 172.267 229.855 167.396C232.178 162.525 233.385 157.197 233.388 151.8V97.875C233.388 94.9908 232.242 92.2247 230.203 90.1852C228.163 88.1458 225.397 87 222.513 87Z" fill="#5059C9"/>
<path d="M182.638 97.875V166.75C182.645 179.514 178.439 191.923 170.672 202.052C162.906 212.181 152.013 219.464 139.684 222.769C127.356 226.074 114.281 225.218 102.489 220.332C90.6968 215.447 80.8471 206.806 74.4682 195.75C73.0731 193.431 71.8611 191.007 70.8432 188.5C69.8943 186.136 69.0952 183.715 68.4507 181.25C67.2554 176.509 66.6467 171.639 66.6382 166.75V97.875C66.6363 96.4463 66.9163 95.0314 67.4621 93.7111C68.008 92.3908 68.8089 91.1912 69.8192 90.181C70.8294 89.1708 72.029 88.3698 73.3493 87.8239C74.6695 87.2781 76.0845 86.9981 77.5132 87H171.763C173.192 86.9981 174.607 87.2781 175.927 87.8239C177.247 88.3698 178.447 89.1708 179.457 90.181C180.467 91.1912 181.268 92.3908 181.814 93.7111C182.36 95.0314 182.64 96.4463 182.638 97.875Z" fill="#7B83EB"/>
<path opacity="0.2" d="M114.973 58H94.0645C96.8086 63.7857 101.138 68.6739 106.55 72.0966C111.962 75.5194 118.234 77.3361 124.638 77.3357V67.6643C124.63 65.1035 123.609 62.6498 121.799 60.839C119.988 59.0283 117.534 58.0076 114.973 58Z" fill="black"/>
<path opacity="0.1" d="M131.888 87V178.858C131.888 181.043 131.14 183.163 129.769 184.864C128.397 186.566 126.484 187.746 124.348 188.21C123.666 188.413 122.957 188.511 122.246 188.5H70.8432C69.8943 186.136 69.0952 183.715 68.4507 181.25C67.2554 176.509 66.6467 171.639 66.6382 166.75V97.875C66.6363 96.4463 66.9163 95.0314 67.4621 93.7111C68.008 92.3908 68.8089 91.1912 69.8192 90.181C70.8294 89.1708 72.029 88.3698 73.3493 87.8239C74.6695 87.2781 76.0845 86.9981 77.5132 87H131.888Z" fill="black"/>
<path opacity="0.2" d="M124.638 87V186.108C124.649 186.819 124.551 187.528 124.348 188.21C123.885 190.346 122.704 192.259 121.002 193.63C119.301 195.002 117.181 195.75 114.996 195.75H74.4682C73.0731 193.431 71.8611 191.007 70.8432 188.5C69.8943 186.136 69.0952 183.715 68.4507 181.25C67.2554 176.509 66.6467 171.639 66.6382 166.75V97.875C66.6363 96.4463 66.9163 95.0314 67.4621 93.7111C68.008 92.3908 68.8089 91.1912 69.8192 90.181C70.8294 89.1708 72.029 88.3698 73.3493 87.8239C74.6695 87.2781 76.0845 86.9981 77.5132 87H124.638Z" fill="black"/>
<path opacity="0.2" d="M124.638 87V171.608C124.627 174.161 123.607 176.607 121.801 178.413C119.995 180.219 117.55 181.239 114.996 181.25H68.4507C67.2554 176.509 66.6467 171.639 66.6382 166.75V97.875C66.6363 96.4463 66.9163 95.0314 67.4621 93.7111C68.008 92.3908 68.8089 91.1912 69.8192 90.181C70.8294 89.1708 72.029 88.3698 73.3493 87.8239C74.6695 87.2781 76.0845 86.9981 77.5132 87H124.638Z" fill="black"/>
<path opacity="0.2" d="M77.5132 87C76.0845 86.9981 74.6695 87.2781 73.3493 87.8239C72.029 88.3698 70.8294 89.1708 69.8192 90.181C68.8089 91.1912 68.008 92.3908 67.4621 93.7111C66.9163 95.0314 66.6363 96.4463 66.6382 97.875V166.75C66.6467 171.639 67.2554 176.509 68.4507 181.25H107.746C110.3 181.239 112.745 180.219 114.551 178.413C116.357 176.607 117.377 174.161 117.388 171.608V87H77.5132Z" fill="black"/>
<path d="M11.0524 58H107.724C110.287 58 112.745 59.0182 114.558 60.8306C116.37 62.643 117.388 65.1011 117.388 67.6643V164.336C117.388 166.899 116.37 169.357 114.558 171.169C112.745 172.982 110.287 174 107.724 174H11.0524C8.48931 174 6.03118 172.982 4.21878 171.169C2.40638 169.357 1.38818 166.899 1.38818 164.336L1.38818 67.6643C1.38818 65.1011 2.40638 62.643 4.21878 60.8306C6.03118 59.0182 8.48931 58 11.0524 58Z" fill="#4B53BC"/>
<path d="M88.2432 94.0696H66.5657V152.215H52.3412V94.0696H30.5332V79.7871H88.2432V94.0696Z" fill="white"/>
</svg>
