<svg width="40" height="40" viewBox="0 0 40 40" fill="none" xmlns="http://www.w3.org/2000/svg">
<path d="M20 0C31.0457 0 40 8.95431 40 20C40 31.0457 31.0457 40 20 40C16.8346 40 13.841 39.2644 11.1807 37.9551C10.7462 37.7413 10.2524 37.6691 9.78027 37.7764L3.46387 39.2129C1.94378 39.5584 0.630184 38.1088 1.12305 36.6299L2.79883 31.6006C2.98892 31.0302 2.90795 30.4072 2.61035 29.8848C0.949434 26.9691 0 23.5956 0 20C0 8.95431 8.95431 0 20 0ZM11.9648 10V13.2236C11.9648 14.3109 11.4349 15.3303 10.5449 15.9541L10 16.3359V23.5732L10.5449 23.9551C11.4349 24.5789 11.9648 25.5983 11.9648 26.6855V30H16.0869V27.1553C16.0869 26.1183 15.5638 25.1706 14.9121 24.3643C13.952 23.1762 13.3682 21.6564 13.3682 20C13.3682 18.3436 13.952 16.8238 14.9121 15.6357C15.5638 14.8294 16.0869 13.8817 16.0869 12.8447V10H11.9648ZM23.9131 10V12.8447C23.9131 13.8817 24.4362 14.8294 25.0879 15.6357C26.048 16.8238 26.6318 18.3436 26.6318 20C26.6318 21.6564 26.048 23.1762 25.0879 24.3643C24.4362 25.1706 23.9131 26.1183 23.9131 27.1553V30H28.0352V26.6855C28.0352 25.5983 28.5651 24.5789 29.4551 23.9551L30 23.5732V16.3359L29.4551 15.9541C28.5651 15.3303 28.0352 14.3109 28.0352 13.2236V10H23.9131Z" fill="#646464"/>
</svg>
