<svg width="1442" height="630" viewBox="0 0 1442 630" fill="none" xmlns="http://www.w3.org/2000/svg">
<path d="M563.413 575.75C540.758 575.75 520.974 570.47 504.058 559.911C487.445 549.05 474.456 534.418 465.093 516.014C456.031 497.611 451.5 476.794 451.5 453.563C451.5 439.685 453.161 426.561 456.484 414.192C459.807 401.822 464.64 390.659 470.983 380.703C477.628 370.446 485.482 361.696 494.543 354.456C503.907 347.215 514.328 341.634 525.807 337.712C537.587 333.488 550.273 331.376 563.866 331.376C581.989 331.376 597.999 334.544 611.893 340.879C626.09 346.913 637.719 355.662 646.781 367.127C655.843 378.591 661.582 392.469 663.999 408.761H621.861C619.747 399.408 615.971 391.564 610.534 385.229C605.097 378.591 598.301 373.613 590.145 370.295C582.292 366.976 573.381 365.317 563.413 365.317C553.747 365.317 545.138 366.825 537.587 369.842C530.035 372.859 523.541 377.083 518.104 382.513C512.667 387.642 508.136 393.978 504.511 401.52C500.887 408.761 498.168 416.756 496.356 425.505C494.543 434.254 493.637 443.456 493.637 453.11C493.637 469.402 496.054 484.336 500.887 497.912C506.022 511.187 513.724 521.897 523.994 530.043C534.264 537.887 547.404 541.809 563.413 541.809C578.516 541.809 590.9 538.491 600.566 531.853C610.232 524.914 617.179 514.506 621.408 500.628H663.545C660.827 515.411 655.088 528.535 646.328 539.999C637.568 551.162 626.241 559.911 612.346 566.247C598.452 572.582 582.141 575.75 563.413 575.75Z" fill="black"/>
<path d="M688.345 569.867V280H729.576V390.659L725.951 386.134C730.18 374.066 736.221 364.11 744.075 356.266C751.928 348.12 761.141 341.935 771.713 337.712C782.285 333.488 793.764 331.376 806.148 331.376C822.157 331.376 836.354 334.845 848.738 341.784C861.123 348.723 870.789 359.132 877.736 373.01C884.683 386.888 888.157 404.236 888.157 425.053V569.867H846.926V427.768C846.926 407.554 841.942 392.319 831.974 382.061C822.006 371.501 809.018 366.222 793.008 366.222C781.832 366.222 771.411 369.239 761.745 375.273C752.079 381.307 744.226 389.603 738.185 400.163C732.446 410.42 729.576 422.488 729.576 436.366V569.867H688.345Z" fill="black"/>
<path d="M989.674 575.75C966.113 575.75 947.385 569.414 933.491 556.743C919.596 544.072 912.649 527.479 912.649 506.963C912.649 493.99 915.669 482.827 921.71 473.475C927.751 463.821 936.662 455.826 948.443 449.49C960.525 443.154 975.175 438.78 992.392 436.366L1044.95 428.673C1055.22 427.165 1061.71 424.298 1064.43 420.075C1067.45 415.851 1068.96 410.873 1068.96 405.141V404.688C1068.96 396.844 1067.15 389.905 1063.53 383.871C1059.9 377.837 1054.31 373.161 1046.76 369.842C1039.51 366.222 1030.15 364.412 1018.67 364.412C1001.45 364.412 988.314 367.429 979.253 373.463C970.191 379.195 964.452 387.642 962.035 398.805H920.804C922.314 385.229 927.298 373.463 935.756 363.507C944.214 353.249 955.39 345.405 969.285 339.974C983.481 334.242 999.944 331.376 1018.67 331.376C1039.21 331.376 1056.28 334.695 1069.87 341.332C1083.46 347.667 1093.58 356.718 1100.23 368.485C1106.87 380.251 1110.2 394.129 1110.2 410.119V569.867H1071.23V515.109L1075.76 517.824C1070.02 533.211 1062.62 545.128 1053.56 553.575C1044.8 561.721 1034.98 567.453 1024.11 570.772C1013.23 574.091 1001.76 575.75 989.674 575.75ZM1000.55 542.714C1011.12 542.714 1020.48 540.904 1028.64 537.284C1037.1 533.663 1044.35 528.535 1050.39 521.897C1056.43 515.26 1060.96 507.265 1063.98 497.912C1067.3 488.56 1068.96 478.302 1068.96 467.139V438.629L1079.39 447.68C1073.65 450.697 1068.21 452.96 1063.07 454.468C1058.24 455.675 1052.35 456.882 1045.4 458.088L999.188 465.782C985.596 467.894 974.722 472.117 966.566 478.453C958.713 484.789 954.786 493.689 954.786 505.153C954.786 516.617 958.864 525.819 967.019 532.758C975.477 539.396 986.653 542.714 1000.55 542.714Z" fill="black"/>
<path d="M1146.35 569.867V337.259H1187.58V402.425L1183.51 401.52C1188.34 384.625 1194.23 371.502 1201.18 362.149C1208.12 352.796 1216.13 346.31 1225.19 342.689C1234.55 339.069 1244.83 337.259 1256 337.259H1270.5V377.988H1252.83C1239.24 377.988 1227.46 381.156 1217.49 387.491C1207.82 393.525 1200.42 402.275 1195.29 413.739C1190.15 425.203 1187.58 438.931 1187.58 454.921V569.867H1146.35Z" fill="black"/>
<path d="M381.5 329.785C381.5 347.933 372.344 364.512 360.933 378.623C344.121 399.415 333.904 426.012 333.904 455C333.904 483.988 344.121 510.584 360.934 531.375C372.344 545.486 381.5 562.064 381.5 580.212V630H314.407V571.989C314.407 552.962 305.127 535.131 289.544 524.214L280 517.528V390.882L289.544 384.195C305.127 373.278 314.407 355.447 314.407 336.42V280H381.5V329.785Z" fill="black"/>
<path d="M1340.5 329.785C1340.5 347.933 1349.66 364.512 1361.07 378.623C1377.88 399.415 1388.1 426.012 1388.1 455C1388.1 483.988 1377.88 510.584 1361.07 531.375C1349.66 545.486 1340.5 562.064 1340.5 580.212V630H1407.59V571.989C1407.59 552.962 1416.87 535.131 1432.46 524.214L1442 517.528V390.882L1432.46 384.195C1416.87 373.278 1407.59 355.447 1407.59 336.42V280H1340.5V329.785Z" fill="black"/>
<path d="M103.012 200.724C103.11 202.022 103.084 203.396 102.932 204.843C102.78 206.291 102.619 207.609 102.448 208.797C102.296 210.245 102.14 211.628 101.978 212.946C101.807 214.134 101.766 215.313 101.854 216.481C102.768 228.556 103.881 240.681 105.194 252.856C106.627 264.892 108.844 276.933 111.845 288.981C112.848 293.606 113.971 298.091 115.214 302.437C116.457 306.783 117.835 311.183 119.347 315.639L119.825 316.778L119.796 316.389C120.254 317.268 120.652 318.217 120.991 319.237C121.449 320.116 121.717 321.075 121.796 322.114C121.904 323.542 121.603 324.74 120.893 325.708C120.312 326.666 119.522 327.444 118.523 328.042C117.524 328.64 116.38 329.053 115.091 329.281C113.932 329.499 112.834 329.647 111.795 329.726C107.51 330.05 104.035 329.856 101.37 329.144C98.8242 328.292 96.7086 327.081 95.0228 325.511C93.3272 323.811 91.9965 321.757 91.0308 319.349C90.195 316.931 89.4044 314.249 88.659 311.302L87.8095 307.841C87.1526 306.062 86.6806 304.139 86.3935 302.072C86.1851 301.043 86.0209 300.598 85.9009 300.738C85.9009 300.738 85.7966 300.223 85.5882 299.195C84.0161 302.578 82.1391 306.246 79.9571 310.198C77.8952 314.01 75.429 317.657 72.5585 321.139C69.8081 324.481 66.7636 327.388 63.425 329.861C60.0766 332.203 56.3899 333.527 52.365 333.832C46.782 334.254 42.3047 332.895 38.9332 329.755C35.6915 326.606 33.1747 322.683 31.383 317.987C29.5814 313.161 28.3543 308.161 27.7016 302.988C27.0391 297.684 26.5604 293.084 26.2656 289.189C25.1455 274.388 24.4897 259.682 24.2981 245.071C24.2364 230.451 24.2346 215.761 24.2929 201.001C24.2634 200.611 24.2241 200.092 24.175 199.443C24.2557 198.784 24.2813 198.26 24.2518 197.87C24.2441 196.042 24.2462 194.345 24.2581 192.777C24.2701 191.209 24.4817 189.691 24.8929 188.224L24.9077 188.419C25.2698 186.302 25.8709 184.755 26.711 183.777C27.6809 182.79 29.2046 182.217 31.282 182.06C33.2295 181.913 35.2066 182.155 37.2131 182.786C39.2098 183.288 41.0363 184.129 42.6926 185.31C44.339 186.36 45.6806 187.695 46.7172 189.314C47.8836 190.924 48.5454 192.767 48.7026 194.844C48.7812 195.883 48.8745 197.117 48.9826 198.545C49.0907 199.973 49.1191 201.211 49.0679 202.26C49.1367 203.169 49.1602 204.342 49.1384 205.78C49.2367 207.079 49.3202 208.182 49.389 209.091C49.2935 221.634 49.4528 234.092 49.8669 246.466C50.2711 258.71 50.9498 271.129 51.9029 283.724C52.1681 287.229 52.4334 290.735 52.6987 294.24C53.0938 297.736 53.7486 301.212 54.6631 304.669C58.5351 298.891 61.7098 291.665 64.1872 282.99C66.6548 274.185 68.5687 264.965 69.9288 255.329C71.409 245.554 72.4445 235.944 73.0355 226.497C73.7464 216.911 74.1514 208.458 74.2503 201.138C74.2208 200.748 74.1865 200.294 74.1472 199.774C74.2377 199.245 74.2682 198.786 74.2387 198.396C74.2605 196.958 74.2872 195.585 74.3188 194.277C74.3503 192.969 74.7114 191.701 75.402 190.474C75.3136 189.305 75.2852 188.067 75.3168 186.758C75.3483 185.45 75.5845 184.257 76.0252 183.179C76.4562 181.971 77.1015 181.008 77.9612 180.29C78.9508 179.563 80.3544 179.13 82.1722 178.992C87.3656 178.599 91.5783 179.913 94.8102 182.933C98.0323 185.823 99.9598 189.725 100.593 194.639C101.321 195.629 101.854 196.633 102.192 197.652C102.65 198.532 102.924 199.555 103.012 200.724ZM167.197 324.162C167.423 327.149 166.662 329.165 164.913 330.211C163.294 331.248 161.251 331.86 158.784 332.046C156.576 332.213 154.354 332.186 152.118 331.963C150.021 331.861 147.964 331.429 145.948 330.667C144.061 329.896 142.345 328.785 140.799 327.335C139.383 325.875 138.321 323.932 137.615 321.504C135.208 313.851 133.595 306.335 132.775 298.954C131.945 291.443 131.231 283.727 130.632 275.807L128.819 251.852C127.993 240.946 127.593 229.616 127.618 217.861C127.632 205.978 127.746 194.543 127.96 183.558C127.93 183.169 127.961 182.709 128.051 182.18C128.142 181.651 128.177 181.257 128.158 180.997C128.179 179.559 128.256 177.986 128.388 176.279C128.52 174.571 128.797 173.048 129.218 171.711C129.759 170.233 130.514 169.001 131.484 168.014C132.584 167.016 134.043 166.449 135.86 166.311C137.938 166.154 139.92 166.461 141.806 167.232C143.813 167.864 145.584 168.84 147.121 170.16C148.647 171.35 149.873 172.89 150.8 174.778C151.856 176.657 152.463 178.635 152.62 180.713C152.787 182.92 152.909 185.392 152.985 188.128C153.052 190.735 153.044 193.216 152.961 195.573C153.01 196.222 152.999 196.941 152.928 197.73C152.987 198.509 152.977 199.228 152.896 199.887C154.438 196.114 156.231 192.192 158.273 188.12C160.306 183.918 162.692 180.081 165.433 176.609C168.293 172.998 171.463 170.015 174.941 167.663C178.549 165.301 182.625 163.948 187.17 163.604C190.935 163.319 194.095 163.667 196.651 164.649C199.206 165.631 201.281 167.171 202.876 169.271C204.592 171.23 205.817 173.618 206.553 176.435C207.418 179.243 207.973 182.269 208.219 185.515C208.553 189.93 208.762 194.419 208.846 198.983C208.921 203.417 208.995 207.851 209.07 212.285C209.024 216.859 209.038 221.363 209.113 225.797C209.187 230.231 209.396 234.72 209.74 239.265C210.153 244.718 210.71 250.356 211.412 256.179C212.104 261.872 212.911 267.361 213.833 272.645C214.746 277.799 215.688 282.494 216.662 286.729C217.626 290.835 218.52 294.032 219.346 296.32C220.013 298.228 220.704 300.461 221.42 303.018C222.256 305.436 223.037 307.988 223.763 310.676C224.608 313.223 225.319 315.716 225.895 318.153C226.472 320.591 226.833 322.783 226.981 324.731C227.197 327.587 226.166 329.493 223.888 330.449C221.74 331.395 219.562 331.952 217.355 332.119C215.147 332.286 212.601 332.283 209.715 332.109C206.969 332.056 204.448 331.529 202.152 330.527C199.278 328.786 197.254 326.197 196.08 322.76C195.036 319.313 194.256 315.912 193.741 312.556L192.759 307.342C192.133 304.255 191.304 300.205 190.272 295.19C189.24 290.176 188.168 284.642 187.057 278.588C186.076 272.525 185.145 266.263 184.264 259.8C183.373 253.208 182.692 246.796 182.221 240.564C181.798 234.981 181.585 229.578 181.582 224.355C181.708 219.122 181.829 213.824 181.946 208.462C181.999 205.715 182.027 203.493 182.029 201.796C182.031 200.098 182.059 197.876 182.112 195.13C179.83 199.481 177.602 204.547 175.427 210.326C173.253 216.106 171.228 222.135 169.353 228.414C167.468 234.563 165.768 240.568 164.253 246.428C162.867 252.279 161.817 257.386 161.103 261.749L160.259 266.122C159.767 268.248 159.34 270.37 158.977 272.487C158.745 274.594 158.698 276.556 158.835 278.374C159.012 280.711 159.348 283.427 159.844 286.524C160.329 289.491 160.87 292.322 161.466 295.019C162.101 298.236 162.806 301.512 163.581 304.849C163.601 305.109 163.794 305.943 164.162 307.351C164.53 308.76 164.917 310.428 165.324 312.356C165.731 314.284 166.083 316.346 166.38 318.544C166.797 320.602 167.069 322.474 167.197 324.162ZM296.497 171.783C296.615 173.341 296.129 174.684 295.039 175.811C294.079 176.928 292.849 177.936 291.35 178.833C289.841 179.6 288.253 180.177 286.585 180.564C285.046 180.942 283.758 181.17 282.719 181.249C281.161 181.366 279.658 181.35 278.21 181.198C276.752 180.917 275.295 180.635 273.837 180.354C272.379 180.072 270.991 179.851 269.673 179.689C268.346 179.398 266.968 179.307 265.539 179.415C263.592 179.562 261.669 180.034 259.77 180.831C257.872 181.627 256.188 182.669 254.718 183.955C253.249 185.242 252.058 186.768 251.147 188.535C250.366 190.291 250.054 192.208 250.212 194.286C250.447 197.402 251.332 200.469 252.867 203.486C254.391 206.374 256.31 209.298 258.623 212.257C261.066 215.206 263.774 218.2 266.746 221.24C269.838 224.14 273.065 227.095 276.427 230.105C280.506 233.975 284.591 237.909 288.68 241.909C292.9 245.899 296.679 250.118 300.019 254.566C303.489 259.004 306.394 263.747 308.735 268.793C311.076 273.839 312.462 279.218 312.894 284.931C313.268 289.865 312.758 294.343 311.365 298.366C310.101 302.379 308.08 305.862 305.3 308.815C302.65 311.757 299.301 314.1 295.255 315.843C291.348 317.705 286.992 318.818 282.188 319.182C280.89 319.28 278.858 319.173 276.092 318.86C273.456 318.537 270.416 318.049 266.971 317.395C263.517 316.612 259.927 315.774 256.204 314.88C252.61 313.977 249.27 312.989 246.186 311.917C243.221 310.705 240.716 309.523 238.67 308.372C236.745 307.082 235.737 305.852 235.649 304.684C235.531 303.126 236.127 301.513 237.438 299.847C238.738 298.051 240.313 296.431 242.162 294.985C244.002 293.409 245.926 292.088 247.934 291.022C250.073 289.946 251.856 289.354 253.284 289.246C255.232 289.099 257.279 289.401 259.425 290.153C261.701 290.895 263.987 291.766 266.282 292.768C268.848 293.879 271.403 294.861 273.948 295.713C276.624 296.555 279.325 296.873 282.051 296.667C284.129 296.51 285.243 295.707 285.395 294.259C285.676 292.802 285.748 291.164 285.611 289.346C285.267 284.802 284.164 280.576 282.301 276.669C280.428 272.632 278.111 268.76 275.35 265.051C272.588 261.343 269.447 257.794 265.926 254.404C262.395 250.884 258.869 247.43 255.348 244.04C251.697 240.66 248.111 237.275 244.59 233.885C241.199 230.486 238.127 226.996 235.375 223.418C232.614 219.709 230.302 215.902 228.439 211.995C226.706 208.078 225.668 203.847 225.324 199.303C224.901 193.72 225.757 188.628 227.889 184.027C230.012 179.296 232.899 175.16 236.548 171.619C240.327 168.069 244.62 165.263 249.426 163.202C254.352 161.001 259.347 159.709 264.411 159.325C266.099 159.198 268.725 159.391 272.289 159.904C275.844 160.288 279.359 161.002 282.833 162.045C286.307 163.088 289.411 164.42 292.145 166.041C294.879 167.662 296.33 169.576 296.497 171.783ZM337.167 147.552C337.334 149.759 336.938 151.421 335.978 152.538C335.138 153.516 333.419 154.103 330.822 154.3C329.654 154.388 327.826 154.396 325.34 154.323C322.843 154.12 320.272 153.792 317.626 153.34C315.11 152.877 312.834 152.135 310.798 151.114C308.892 150.083 307.875 148.724 307.748 147.036C307.708 146.516 307.795 145.074 308.008 142.707C308.21 140.211 308.468 137.579 308.781 134.814C309.224 132.038 309.557 129.532 309.779 127.295C310.132 125.048 310.428 123.785 310.668 123.506L310.683 123.701C311.253 122.613 311.983 121.905 312.872 121.577C313.762 121.248 314.661 121.049 315.569 120.981C316.738 120.892 318.246 120.974 320.093 121.226C322.06 121.338 323.977 121.65 325.844 122.162C327.831 122.534 329.638 123.115 331.265 123.906C332.891 124.697 333.939 125.597 334.407 126.606C334.875 127.616 335.178 129.029 335.316 130.847C335.573 132.525 335.691 134.083 335.669 135.521C335.709 136.04 335.693 136.694 335.622 137.483C335.671 138.132 335.71 138.652 335.74 139.041C335.789 139.691 335.838 140.34 335.887 140.989C336.066 141.628 336.245 142.268 336.424 142.907C336.603 143.546 336.722 144.256 336.781 145.035C336.97 145.804 337.099 146.643 337.167 147.552ZM356.12 302.227C356.346 305.213 355.794 307.409 354.464 308.816C353.254 310.082 351.156 310.829 348.169 311.055C346.611 311.173 344.844 311.111 342.867 310.868C341.02 310.617 339.162 310.235 337.296 309.723C335.419 309.082 333.662 308.3 332.026 307.38C330.389 306.459 329.132 305.379 328.255 304.139C327.676 303.4 327.04 301.032 326.346 297.037C325.652 293.041 324.949 288.067 324.238 282.114C323.656 276.151 322.955 269.48 322.135 262.098C321.445 254.708 320.751 247.252 320.051 239.731C319.481 232.201 318.926 224.865 318.385 217.724C317.845 210.583 317.373 204.35 316.971 199.027L315.836 184.031C315.737 182.733 315.639 181.434 315.541 180.136C315.573 178.828 315.749 177.704 316.069 176.766C316.51 175.688 317.16 174.79 318.02 174.072C319.01 173.344 320.413 172.912 322.231 172.774C327.944 172.342 332.222 173.65 335.064 176.7C338.026 179.609 340.034 183.701 341.086 188.976C342.334 196.847 343.388 204.732 344.247 212.633C345.226 220.393 346.15 228.289 347.019 236.319C347.829 243.57 348.569 250.762 349.239 257.893C350.029 264.884 351.014 271.861 352.194 278.823C352.432 280.242 352.665 281.595 352.893 282.884C353.121 284.172 353.414 285.456 353.772 286.735C354.228 289.312 354.684 291.889 355.141 294.466C355.587 296.913 355.913 299.5 356.12 302.227ZM469.772 253.668C469.87 254.967 469.598 256.554 468.957 258.431C468.435 260.168 467.664 262.054 466.643 264.09C465.742 265.987 464.716 267.958 463.565 270.004C462.414 272.049 461.313 273.895 460.262 275.542L457.65 279.853L455.112 285.138L452.934 290.003C453.261 292.59 453.667 295.367 454.152 298.334C454.638 301.3 455.114 304.137 455.58 306.844C458.02 320.109 460.285 333.649 462.375 347.463C464.595 361.267 466.211 374.855 467.223 388.229C467.763 395.37 467.724 402.62 467.106 409.979C466.498 417.468 464.791 424.257 461.988 430.345C459.323 436.554 455.342 441.752 450.044 445.939C444.746 450.127 437.748 452.55 429.049 453.209C423.076 453.661 417.929 452.94 413.607 451.047C409.285 449.154 405.684 446.424 402.802 442.855C400.06 439.406 397.918 435.259 396.376 430.414C394.834 425.568 393.862 420.484 393.459 415.161C392.663 404.644 393.091 393.904 394.742 382.941C396.394 371.978 398.769 361.09 401.868 350.279C405.097 339.457 408.86 328.791 413.158 318.281C417.465 307.9 421.866 297.904 426.362 288.293C426.342 288.033 426.323 287.773 426.303 287.514C426.274 287.124 426.165 286.545 425.976 285.776C424.524 289.019 422.822 292.413 420.87 295.955C419.038 299.359 416.857 302.462 414.327 305.265C411.927 308.058 409.168 310.421 406.05 312.355C403.061 314.279 399.62 315.388 395.724 315.683C390.271 316.095 385.629 315.141 381.797 312.819C377.965 310.498 374.793 307.408 372.281 303.55C369.899 299.682 368.072 295.381 366.8 290.645C365.527 285.91 364.729 281.4 364.405 277.116C364.031 272.182 363.922 267.293 364.078 262.45C364.364 257.597 364.724 252.869 365.159 248.266C365.908 240.896 366.936 232.918 368.245 224.332C369.674 215.605 371.567 206.974 373.925 198.439C376.272 189.773 379.113 181.593 382.448 173.897C385.913 166.192 390.111 159.541 395.041 153.945L396.496 152.464C398.056 150.648 399.881 148.878 401.97 147.153C404.05 145.298 406.258 144.282 408.595 144.105C410.023 143.997 411.286 144.293 412.384 144.994C413.612 145.684 414.664 146.649 415.541 147.889C416.409 148.998 417.091 150.252 417.589 151.651C418.216 153.04 418.579 154.384 418.677 155.682C418.795 157.24 418.339 158.972 417.308 160.878L417.697 160.849C425.617 160.249 431.216 163.482 434.492 170.547C436.019 171.737 437.176 173.216 437.962 174.985C438.879 176.744 439.416 178.662 439.573 180.739C439.652 181.778 439.675 182.951 439.643 184.259C439.602 185.438 439.491 186.556 439.31 187.615C439.139 188.803 439.027 189.921 438.976 190.97C438.925 192.018 438.934 192.997 439.002 193.906C439.228 196.892 439.573 200.587 440.037 204.992C440.501 209.397 441.045 213.991 441.668 218.775C442.291 223.56 442.909 228.279 443.523 232.934C444.256 237.448 444.88 241.384 445.396 244.74C446.216 243.503 447.176 242.385 448.276 241.388C449.505 240.381 450.964 239.814 452.652 239.686C454.08 239.578 455.743 239.974 457.639 240.875C459.665 241.767 461.516 242.932 463.192 244.373C464.998 245.803 466.489 247.388 467.665 249.127C468.961 250.726 469.664 252.24 469.772 253.668ZM410.142 177.482C410.083 176.703 410.019 175.859 409.95 174.95C410.011 174.031 410.132 173.043 410.313 171.985L409.083 173.841C408.132 175.088 407.242 176.265 406.412 177.372C405.582 178.48 404.821 179.647 404.131 180.875C401.128 186.064 398.628 192.717 396.631 200.834C394.754 208.811 393.3 217.212 392.27 226.039C391.231 234.736 390.571 243.274 390.291 251.652C390.141 260.021 390.292 267.191 390.744 273.164C390.97 276.15 391.261 279.131 391.617 282.108C391.973 285.084 392.843 287.956 394.227 290.724C395.898 288.639 397.234 286.449 398.235 284.153C399.227 281.728 400.149 279.242 401.001 276.697C403.376 270.119 405.283 262.531 406.721 253.935C408.16 245.338 409.19 236.511 409.81 227.454C410.43 218.397 410.741 209.559 410.742 200.941C410.733 192.193 410.533 184.373 410.142 177.482ZM440.683 384.361C440.015 375.532 439.192 367.237 438.213 359.476C437.244 351.845 436.035 343.645 434.588 334.875C432.674 340.635 430.724 346.789 428.738 353.338C426.892 360.007 425.306 366.656 423.98 373.285C422.663 380.044 421.666 386.714 420.989 393.294C420.312 399.875 420.194 406.086 420.636 411.929L420.739 413.292C420.965 416.278 421.401 419.445 422.046 422.791C422.701 426.267 424.15 429.03 426.395 431.08L428.537 430.918C431.134 430.721 433.207 429.65 434.758 427.705C436.448 425.88 437.774 423.559 438.736 420.744C439.698 417.929 440.376 414.809 440.77 411.385C441.164 407.96 441.362 404.549 441.367 401.154C441.371 397.759 441.26 394.568 441.034 391.582C440.938 388.585 440.821 386.179 440.683 384.361ZM510.746 298.164C510.972 301.15 510.211 303.167 508.462 304.213C506.843 305.25 504.8 305.861 502.333 306.048C500.125 306.215 497.903 306.187 495.667 305.965C493.57 305.862 491.513 305.43 489.497 304.669C487.61 303.898 485.894 302.787 484.348 301.337C482.931 299.877 481.87 297.934 481.164 295.506C478.757 287.853 477.144 280.336 476.324 272.955C475.494 265.445 474.78 257.729 474.18 249.809L472.368 225.854C471.542 214.948 471.142 203.617 471.167 191.863C471.181 179.979 471.295 168.545 471.509 157.56C471.479 157.171 471.51 156.711 471.6 156.182C471.691 155.653 471.726 155.258 471.707 154.999C471.728 153.561 471.805 151.988 471.937 150.28C472.069 148.573 472.346 147.05 472.767 145.713C473.308 144.235 474.063 143.003 475.033 142.015C476.133 141.018 477.592 140.451 479.409 140.313C481.487 140.156 483.469 140.463 485.355 141.234C487.362 141.866 489.133 142.842 490.669 144.162C492.196 145.352 493.422 146.892 494.349 148.78C495.405 150.659 496.012 152.637 496.169 154.715C496.336 156.922 496.458 159.394 496.534 162.13C496.601 164.737 496.593 167.218 496.51 169.575C496.559 170.224 496.548 170.943 496.477 171.732C496.536 172.511 496.525 173.23 496.445 173.889C497.987 170.116 499.78 166.194 501.822 162.122C503.855 157.92 506.241 154.083 508.982 150.611C511.842 146.999 515.012 144.017 518.49 141.665C522.098 139.303 526.174 137.949 530.719 137.606C534.484 137.321 537.644 137.669 540.2 138.651C542.755 139.633 544.83 141.173 546.425 143.272C548.141 145.232 549.366 147.62 550.102 150.437C550.967 153.245 551.522 156.271 551.768 159.517C552.102 163.932 552.311 168.421 552.395 172.985C552.47 177.419 552.544 181.853 552.619 186.287C552.573 190.861 552.587 195.365 552.662 199.799C552.736 204.233 552.945 208.722 553.289 213.267C553.702 218.72 554.259 224.358 554.961 230.181C555.653 235.874 556.46 241.363 557.382 246.647C558.295 251.801 559.237 256.496 560.211 260.731C561.174 264.837 562.069 268.034 562.895 270.322C563.562 272.23 564.253 274.463 564.969 277.02C565.805 279.438 566.586 281.99 567.312 284.678C568.157 287.225 568.868 289.718 569.444 292.155C570.021 294.593 570.382 296.785 570.53 298.733C570.746 301.589 569.715 303.495 567.437 304.451C565.289 305.397 563.111 305.954 560.904 306.121C558.696 306.288 556.15 306.285 553.264 306.111C550.518 306.058 547.997 305.531 545.701 304.529C542.827 302.788 540.803 300.199 539.629 296.762C538.585 293.315 537.805 289.914 537.29 286.558L536.307 281.344C535.682 278.257 534.853 274.206 533.821 269.192C532.789 264.177 531.717 258.644 530.606 252.59C529.625 246.527 528.694 240.265 527.813 233.802C526.922 227.21 526.241 220.798 525.77 214.566C525.347 208.983 525.134 203.58 525.131 198.357C525.257 193.124 525.378 187.826 525.495 182.464C525.548 179.717 525.576 177.495 525.578 175.798C525.58 174.1 525.608 171.878 525.661 169.132C523.379 173.483 521.151 178.548 518.976 184.328C516.802 190.107 514.777 196.137 512.902 202.416C511.017 208.565 509.317 214.57 507.802 220.43C506.416 226.281 505.366 231.388 504.652 235.751L503.808 240.124C503.316 242.25 502.888 244.372 502.526 246.489C502.294 248.596 502.247 250.558 502.384 252.376C502.561 254.713 502.897 257.429 503.393 260.526C503.878 263.492 504.419 266.324 505.015 269.021C505.65 272.238 506.355 275.514 507.13 278.851C507.15 279.11 507.343 279.945 507.711 281.353C508.079 282.762 508.466 284.43 508.873 286.358C509.28 288.286 509.632 290.348 509.929 292.546C510.346 294.603 510.618 296.476 510.746 298.164ZM657.695 252.179C657.99 256.074 657.191 260.182 655.298 264.504C653.535 268.816 651.098 272.853 647.988 276.614C644.867 280.245 641.184 283.331 636.936 285.873C632.819 288.404 628.617 289.832 624.333 290.156C618.23 290.618 612.884 289.847 608.292 287.844C603.691 285.711 599.615 282.755 596.065 278.976C592.504 275.067 589.489 270.594 587.019 265.558C584.678 260.512 582.717 255.306 581.136 249.942C579.545 244.447 578.283 238.993 577.351 233.579C576.539 228.026 575.962 222.977 575.618 218.432C575.323 214.537 575.169 209.913 575.155 204.56C575.272 199.198 575.633 193.621 576.24 187.829C576.976 182.028 578.107 176.262 579.632 170.532C581.157 164.802 583.18 159.621 585.703 154.99C588.355 150.35 591.59 146.514 595.409 143.483C599.358 140.442 603.993 138.72 609.317 138.317C613.472 138.003 617.236 138.567 620.609 140.009C624.113 141.441 627.076 143.502 629.5 146.192C632.043 148.741 634.037 151.79 635.48 155.337C637.054 158.874 637.988 162.59 638.283 166.485C638.666 171.549 637.915 177.155 636.03 183.305C634.145 189.454 631.531 195.463 628.188 201.331C624.975 207.189 621.203 212.567 616.873 217.465C612.663 222.223 608.374 225.943 604.007 228.624C604.443 230.941 605.223 234.343 606.346 238.828C607.459 243.183 608.832 247.519 610.464 251.836C612.226 256.142 614.139 259.849 616.203 262.958C618.396 266.056 620.791 267.507 623.387 267.311C624.686 267.212 625.76 266.739 626.61 265.892C627.59 265.034 628.42 263.927 629.101 262.569C629.781 261.212 630.323 259.735 630.724 258.137C631.255 256.53 631.727 254.993 632.138 253.525L633.1 250.71C633.33 250.301 633.44 250.032 633.431 249.902C633.551 249.762 633.666 249.557 633.776 249.288C634.557 247.531 635.283 245.909 635.954 244.422C636.755 242.925 637.895 241.598 639.374 240.442L639.18 240.457C639.66 239.898 640.159 239.599 640.679 239.56C641.318 239.381 641.897 239.272 642.417 239.232C643.845 239.124 645.437 239.461 647.194 240.242C648.951 241.023 650.597 242.074 652.133 243.394C653.66 244.584 654.941 245.989 655.978 247.608C657.005 249.097 657.577 250.621 657.695 252.179ZM612.634 169.21C612.536 167.911 612.368 166.553 612.13 165.135C611.892 163.716 611.474 162.507 610.876 161.508C609.225 163.853 607.804 166.637 606.611 169.861C605.539 172.946 604.676 176.21 604.022 179.655C603.359 182.97 602.831 186.339 602.437 189.764C602.173 193.179 602.019 196.325 601.976 199.201C605.047 194.921 607.69 190.15 609.903 184.89C612.107 179.5 613.017 174.273 612.634 169.21ZM756.144 274.501C756.253 275.929 756.021 277.187 755.451 278.275C754.87 279.233 754.085 280.076 753.096 280.804C752.226 281.392 751.217 281.86 750.068 282.208C749.049 282.546 748.02 282.755 746.981 282.833C745.423 282.951 743.721 282.884 741.874 282.632C740.026 282.38 738.169 281.999 736.303 281.487C734.426 280.845 732.669 280.064 731.033 279.144C729.516 278.083 728.314 276.868 727.427 275.499C726.54 274.13 725.823 272.421 725.276 270.373C724.85 268.186 724.423 265.998 723.996 263.81C722.934 267.025 721.606 270.194 720.015 273.318C718.553 276.432 716.677 279.251 714.387 281.774C712.087 284.168 709.428 286.132 706.41 287.666C703.532 289.321 700.21 290.29 696.445 290.575C689.823 291.076 684.317 289.926 679.927 287.124C675.666 284.313 672.19 280.658 669.499 276.161C666.929 271.524 665.042 266.444 663.841 260.92C662.759 255.256 662.022 249.827 661.629 244.634C661.305 240.349 661.131 235.466 661.108 229.983C661.085 224.5 661.182 218.878 661.399 213.116C661.615 207.354 661.977 201.777 662.483 196.385C662.979 190.863 663.589 185.985 664.314 181.752C665.248 176.85 666.409 171.473 667.794 165.623C669.299 159.633 671.294 154.063 673.777 148.913C676.38 143.623 679.691 139.064 683.71 135.234C687.73 131.404 692.711 129.068 698.654 128.227C697.468 117.739 696.152 108.111 694.705 99.3409C693.378 90.4312 691.971 81.3318 690.485 72.0425L686.901 50.572L685.533 42.8407C685.116 40.7829 684.764 38.7203 684.477 36.6527C684.18 34.4553 683.953 32.3179 683.796 30.2405C683.57 27.2543 684.191 25.1179 685.661 23.8315C687.26 22.5352 689.359 21.7888 691.955 21.5923C697.668 21.16 702.082 21.6748 705.196 23.1367C708.309 24.5986 710.559 26.7135 711.944 29.4815C713.458 32.2397 714.428 35.5614 714.852 39.4467C715.267 43.2021 715.641 47.2871 715.975 51.7016C716.192 54.558 716.762 57.7793 717.686 61.3656L719.205 68.4979L722.267 88.2451C722.762 91.3415 723.258 94.438 723.753 97.5344C724.249 100.631 724.744 103.727 725.239 106.824L732.498 148.387L746.213 226.089L747.343 233.251C748.265 238.535 749.137 244.018 749.959 249.702C750.91 255.375 752.247 260.954 753.967 266.439C754.465 267.838 754.893 269.177 755.251 270.455C755.738 271.724 756.036 273.073 756.144 274.501ZM702.145 164.003C702.037 162.575 701.854 161.022 701.596 159.344C701.459 157.526 701.331 155.838 701.213 154.28L700.815 149.021C700.004 150.389 698.973 152.295 697.722 154.74C696.461 157.055 695.51 159.151 694.868 161.028C693.135 165.729 691.694 171.715 690.547 178.983C689.389 186.122 688.456 193.636 687.747 201.524C687.159 209.273 686.82 216.873 686.73 224.322C686.631 231.642 686.769 237.769 687.142 242.703C687.28 244.521 687.437 246.598 687.614 248.935C687.92 251.263 688.362 253.645 688.938 256.082C689.504 258.39 690.261 260.618 691.207 262.766C692.153 264.914 693.329 266.654 694.735 267.983C696.496 265.369 697.964 261.471 699.139 256.29C700.304 250.978 701.16 245.037 701.708 238.467C702.375 231.757 702.823 224.737 703.052 217.407C703.281 210.077 703.335 203.022 703.213 196.241C703.212 189.32 703.065 183.063 702.772 177.471C702.599 171.738 702.39 167.249 702.145 164.003Z" fill="#FF0000"/>
<path d="M13.835 238.812L753.517 182.836L754.991 202.312L15.3088 258.287L13.835 238.812Z" fill="#FF0000"/>
</svg>
